<svg width="13.194" height="13.165" viewBox="0 0 9.896 234" xmlns="http://www.w3.org/2000/svg">
    <path
            d="M121.38 117.003c0-64.341-52.203-116.5-116.6-116.5-64.395 0-116.6 52.159-116.6 116.5 0 64.341 52.203 116.5 116.6 116.5 64.395 0 116.6-52.159 116.6-116.5zm-116.93 0c0-32.08-26.028-58.086-58.135-58.086s-58.135 26.006-58.135 58.086 26.028 58.086 58.135 58.086S4.45 149.083 4.45 117.003zm116.93 0c0-32.08-26.027-58.086-58.134-58.086-32.108 0-58.135 26.006-58.135 58.086 0 32.171 26.101 58.25 58.299 58.25s58.299-26.079 58.299-58.25zm-58.463 58.414c0-32.08-26.028-58.086-58.135-58.086s-58.135 26.006-58.135 58.086 26.028 58.086 58.135 58.086 58.135-26.006 58.135-58.086zm0-116.83C62.917 26.507 36.889.501 4.782.501s-58.135 26.006-58.135 58.086 26.028 58.086 58.135 58.086 58.135-26.006 58.135-58.086zm.164 58.414c0-32.171-26.101-58.25-58.299-58.25s-58.299 26.079-58.299 58.25 26.101 58.25 58.299 58.25 58.299-26.079 58.299-58.25z"
            fill="#fff" fill-rule="evenodd" stroke="#fff"/>
</svg>